<svg preserveAspectRatio="none" width="100%" height="100%" overflow="visible" style="display: block;" viewBox="0 0 21.1214 20.8024" fill="none" xmlns="http://www.w3.org/2000/svg">
<g id="Weight=Fill">
<path id="Vector" fill-rule="evenodd" clip-rule="evenodd" d="M12.07 0.430545C11.1457 -0.143515 9.97565 -0.143515 9.05135 0.430545L1.35139 5.2128C0.51106 5.7347 0 6.65371 0 7.64292V17.7418C0 19.4321 1.37031 20.8024 3.06067 20.8024H6.73257C7.31836 20.8024 7.79323 20.3276 7.79323 19.7418V14.8952C7.79323 13.3737 9.02275 12.1253 10.5651 12.1102C12.0814 12.1126 13.328 13.3545 13.328 14.8952V19.7418C13.328 20.3276 13.803 20.8024 14.3888 20.8024H18.0606C19.751 20.8024 21.1214 19.4321 21.1214 17.7418V7.64292C21.1214 6.65371 20.6103 5.73471 19.77 5.2128L12.07 0.430545Z" fill="var(--fill-0, #B0B3BA)"/>
</g>
</svg>
